<svg width="20" height="20" viewBox="0 0 20 20" fill="none" xmlns="http://www.w3.org/2000/svg">
<path d="M0 6.182V19.0083C0 19.556 0.447715 20 1 20H7C7.55228 20 8 19.556 8 19.0083V14.5457C8 13.998 8.44771 13.554 9 13.554H11C11.5523 13.554 12 13.998 12 14.5457V19.0083C12 19.556 12.4477 20 13 20H19C19.5523 20 20 19.556 20 19.0083V6.182C20 5.83366 19.8157 5.51085 19.5145 5.33163L11.029 0.282645C10.3956 -0.094215 9.60437 -0.0942152 8.97101 0.282645L0.485505 5.33163C0.184299 5.51085 0 5.83365 0 6.182Z" fill="white"/>
</svg>
